<svg id="img-logo" xmlns="http://www.w3.org/2000/svg" width="157" height="24" viewBox="0 0 157 24">
  <g id="graphics" transform="translate(0 3)">
    <path id="Path_208" data-name="Path 208" d="M16.4,9.325a2.058,2.058,0,1,1-.6-1.465,2.067,2.067,0,0,1,.6,1.465ZM28.216,8.043l-4.89,4.669a1.456,1.456,0,0,1-.257.2A9.433,9.433,0,0,1,4.946,10.343L2.465,12.712A1.458,1.458,0,1,1,.451,10.6l4.89-4.668a1.456,1.456,0,0,1,.257-.2A9.433,9.433,0,0,1,23.72,8.313L26.2,5.935a1.458,1.458,0,1,1,2.014,2.108ZM20.861,9.325a6.528,6.528,0,1,0-6.527,6.526,6.528,6.528,0,0,0,6.527-6.526Z" transform="translate(0 0.144)" fill="#101010"/>
  </g>
  <text id="Full_Diseño" data-name="Full Diseño" transform="translate(98 18)" fill="#101010" font-size="20" font-family="Goldman-Regular, Goldman" letter-spacing="0.02em"><tspan x="-58.9" y="0">Full Diseño</tspan></text>
</svg>
